<?xml version="1.0" encoding="UTF-8"?>
<svg width="40px" height="40px" viewBox="0 0 40 40" xmlns="http://www.w3.org/2000/svg">
    <g id="all" stroke="none" stroke-width="1" fill="none" fill-rule="evenodd">
        <polygon id="K" fill="#4A76A8" points="2 9 6 4 6 18 15.4376459 4 18.8 5.5 9 18 28.5 35 21 35 6 20.5 6 28.0405142 2 28"></polygon>
        <path d="M16,13 L18.7334852,13 C19.225515,13 19.6719798,13.0487283 20.0728929,13.1461864 C20.4738061,13.2436446 20.8177662,13.3919482 21.1047836,13.5911017 C21.391801,13.7902552 21.6127555,14.0402527 21.7676538,14.3411017 C21.922552,14.6419507 22,14.9957607 22,15.4025424 C22,15.8093241 21.9202741,16.1631341 21.76082,16.4639831 C21.6013659,16.764832 21.3781336,17.0148295 21.0911162,17.2139831 C20.8040988,17.4131366 20.4578608,17.5635588 20.0523918,17.6652542 C19.6469228,17.7669497 19.1981801,17.8177966 18.7061503,17.8177966 L17.5,17.8177966 L17.5,21 L16,21 L16,13 Z M17.5,17 L18.240678,17 C18.816952,17 19.2542358,16.871095 19.5525424,16.6132812 C19.8508489,16.3554675 20,15.9804712 20,15.4882813 C20,14.9726537 19.8457643,14.5957043 19.5372881,14.3574219 C19.228812,14.1191394 18.7966129,14 18.240678,14 L17.5,14 L17.5,17 Z M23.5,13 L25,13 L25,16.9025424 L28.5,16.9025424 L28.5,13 L30,13 L30,21 L28.5,21 L28.5,17.7415254 L25,17.7415254 L25,21 L23.5,21 L23.5,13 Z M32,13 L34.7334852,13 C35.225515,13 35.6719798,13.0487283 36.0728929,13.1461864 C36.4738061,13.2436446 36.8177662,13.3919482 37.1047836,13.5911017 C37.391801,13.7902552 37.6127555,14.0402527 37.7676538,14.3411017 C37.922552,14.6419507 38,14.9957607 38,15.4025424 C38,15.8093241 37.9202741,16.1631341 37.76082,16.4639831 C37.6013659,16.764832 37.3781336,17.0148295 37.0911162,17.2139831 C36.8040988,17.4131366 36.4578608,17.5635588 36.0523918,17.6652542 C35.6469228,17.7669497 35.1981801,17.8177966 34.7061503,17.8177966 L33.5,17.8177966 L33.5,21 L32,21 L32,13 Z M33.5,17 L34.240678,17 C34.816952,17 35.2542358,16.871095 35.5525424,16.6132812 C35.8508489,16.3554675 36,15.9804712 36,15.4882813 C36,14.9726537 35.8457643,14.5957043 35.5372881,14.3574219 C35.228812,14.1191394 34.7966129,14 34.240678,14 L33.5,14 L33.5,17 Z" id="PHP" fill="#5A5AAE"></path>
        <polygon id="underline1" fill-opacity="0.5" fill="#4A76A8" points="2 32 14 32 16.5 34 2 34"></polygon>
        <polygon id="underline2" fill-opacity="0.5" fill="#4A76A8" points="28.5 32 38 32 38 34.0017371 31 34.0017371"></polygon>
    </g>
</svg>
