<svg height="40" viewBox="0 0 40 40" width="40" xmlns="http://www.w3.org/2000/svg"><g fill="none" fill-rule="evenodd"><path d="m2 9 4-5v14l9.4376459-14 3.3623541 1.5-9.8 12.5 19.5 17h-7.5l-15-14.5v7.5405142l-4-.0405142z" fill="#4a76a8"/><path d="m16 13h2.7334852c.4920298 0 .9384946.0487283 1.3394077.1461864.4009132.0974582.7448733.2457618 1.0318907.4449153s.5079719.449151.6628702.75c.1548982.300849.2323462.654659.2323462 1.0614407s-.0797259.7605917-.23918 1.0614407c-.1594541.3008489-.3826864.5508464-.6697038.75-.2870174.1991535-.6332554.3495757-1.0387244.4512711-.405469.1016955-.8542117.1525424-1.3462415.1525424h-1.2061503v3.1822034h-1.5zm1.5 4h.740678c.576274 0 1.0135578-.128905 1.3118644-.3867188.2983065-.2578137.4474576-.63281.4474576-1.1249999 0-.5156276-.1542357-.892577-.4627119-1.1308594-.3084761-.2382825-.7406752-.3574219-1.2966101-.3574219h-.740678zm6-4h1.5v3.9025424h3.5v-3.9025424h1.5v8h-1.5v-3.2584746h-3.5v3.2584746h-1.5zm8.5 0h2.7334852c.4920298 0 .9384946.0487283 1.3394077.1461864.4009132.0974582.7448733.2457618 1.0318907.4449153s.5079719.449151.6628702.75c.1548982.300849.2323462.654659.2323462 1.0614407s-.0797259.7605917-.23918 1.0614407c-.1594541.3008489-.3826864.5508464-.6697038.75-.2870174.1991535-.6332554.3495757-1.0387244.4512711-.405469.1016955-.8542117.1525424-1.3462415.1525424h-1.2061503v3.1822034h-1.5zm1.5 4h.740678c.576274 0 1.0135578-.128905 1.3118644-.3867188.2983065-.2578137.4474576-.63281.4474576-1.1249999 0-.5156276-.1542357-.892577-.4627119-1.1308594-.3084761-.2382825-.7406752-.3574219-1.2966101-.3574219h-.740678z" fill="#5a5aae"/><g fill="#4a76a8" fill-opacity=".5"><path d="m2 32h12l2.5 2h-14.5z"/><path d="m28.5 32h9.5v2.0017371h-7z"/></g></g></svg>