<svg width="16" height="16" viewBox="0 0 16 16" fill="none" xmlns="http://www.w3.org/2000/svg">
  <g clip-path="url(#clip0_3:9)">
    <path fill-rule="evenodd" clip-rule="evenodd"
          d="M9.32532 0.591867C9.3224 0.600587 9.3002 0.609347 9.276 0.611347C9.2518 0.613347 9.232 0.620587 9.232 0.627467C9.232 0.634347 9.20996 0.639987 9.18304 0.639987C9.15612 0.639987 9.13808 0.646387 9.14288 0.654187C9.1512 0.667627 9.13768 0.672067 9.012 0.697227C8.9834 0.702947 8.96 0.713987 8.96 0.721787C8.96 0.729587 8.9384 0.735987 8.912 0.735987C8.8856 0.735987 8.864 0.743187 8.864 0.751987C8.864 0.760787 8.8424 0.767987 8.816 0.767987C8.7896 0.767987 8.768 0.775187 8.768 0.783987C8.768 0.792787 8.7464 0.799987 8.72 0.799987C8.6936 0.799987 8.672 0.807187 8.672 0.815987C8.672 0.824787 8.65444 0.831987 8.63296 0.831987C8.61148 0.831987 8.58944 0.839187 8.584 0.847987C8.57856 0.856787 8.55252 0.863987 8.52612 0.863987C8.4982 0.863987 8.48224 0.870667 8.488 0.879987C8.49388 0.889507 8.47484 0.895987 8.44096 0.895987C8.40964 0.895987 8.384 0.903187 8.384 0.911987C8.384 0.920787 8.36644 0.927987 8.34496 0.927987C8.32348 0.927987 8.30144 0.935187 8.296 0.943987C8.29056 0.952787 8.26536 0.959987 8.24 0.959987C8.21464 0.959987 8.18944 0.967187 8.184 0.975987C8.17856 0.984787 8.15652 0.991987 8.13504 0.991987C8.11356 0.991987 8.096 0.997627 8.096 1.00455C8.096 1.01147 8.0834 1.01791 8.068 1.01887C8.0526 1.01987 8.022 1.02559 8 1.03159C7.978 1.03763 7.951 1.04319 7.94 1.04395C7.929 1.04471 7.92 1.04975 7.92 1.05515C7.92 1.06059 7.90052 1.06663 7.87672 1.06859C7.85288 1.07055 7.82624 1.07935 7.81752 1.08807C7.80876 1.09683 7.78504 1.10399 7.7648 1.10399C7.74456 1.10399 7.728 1.11119 7.728 1.11999C7.728 1.12879 7.707 1.13599 7.68132 1.13599C7.65568 1.13599 7.63228 1.14251 7.62932 1.15047C7.6264 1.15843 7.6024 1.16743 7.576 1.17043C7.5496 1.17343 7.52376 1.18167 7.51856 1.18875C7.51336 1.19579 7.49176 1.20267 7.47056 1.20403C7.44936 1.20535 7.4274 1.21311 7.4218 1.22123C7.41624 1.22935 7.39296 1.23599 7.37012 1.23599C7.34728 1.23599 7.3318 1.24119 7.33572 1.24755C7.33968 1.25395 7.30176 1.26859 7.25144 1.28015C7.20116 1.29171 7.15316 1.30719 7.1448 1.31455C7.12428 1.33271 7.008 1.33171 7.008 1.31343C7.008 1.30539 6.9666 1.29495 6.916 1.29015C6.8654 1.28539 6.7736 1.27359 6.712 1.26391C6.6504 1.25423 6.555 1.24251 6.5 1.23779C6.445 1.23311 6.4 1.22387 6.4 1.21727C6.4 1.21063 6.3552 1.20363 6.30048 1.20163C6.24572 1.19967 6.19352 1.19251 6.18448 1.18571C6.1754 1.17891 6.132 1.17159 6.088 1.16943C6.044 1.16727 6.00116 1.15887 5.9928 1.15075C5.98444 1.14263 5.93224 1.13599 5.8768 1.13599C5.82104 1.13599 5.776 1.12891 5.776 1.12015C5.776 1.11147 5.75904 1.10575 5.73828 1.10747C5.7014 1.11051 5.70028 1.11523 5.69016 1.31131C5.68444 1.42167 5.67276 1.61279 5.6642 1.73599C5.65564 1.85919 5.641 2.07159 5.63168 2.20799C5.58472 2.89331 5.5912 2.85995 5.48868 2.94771C5.27652 3.12931 5.00364 2.94603 5.0306 2.63999C5.0364 2.57399 5.04812 2.41919 5.05664 2.29599C5.06516 2.17279 5.07924 1.97479 5.08792 1.85599C5.09664 1.73719 5.10844 1.54799 5.1142 1.43555L5.12464 1.23111L5.07432 1.23495C5.04664 1.23707 5.024 1.24447 5.024 1.25139C5.024 1.25831 5.0096 1.26399 4.992 1.26399C4.9744 1.26399 4.96 1.27119 4.96 1.27999C4.96 1.28879 4.9456 1.29599 4.928 1.29599C4.9104 1.29599 4.89596 1.30139 4.89588 1.30799C4.89572 1.32235 4.81824 1.35999 4.7888 1.35999C4.77736 1.35999 4.768 1.36719 4.768 1.37599C4.768 1.38479 4.7536 1.39199 4.736 1.39199C4.7184 1.39199 4.704 1.39919 4.704 1.40799C4.704 1.41679 4.69312 1.42399 4.6798 1.42399C4.66648 1.42399 4.64308 1.43063 4.6278 1.43875C4.61252 1.44691 4.55092 1.47715 4.49092 1.50603C4.43092 1.53491 4.37832 1.56427 4.37396 1.57127C4.36964 1.57827 4.35212 1.58399 4.33504 1.58399C4.31796 1.58399 4.304 1.59119 4.304 1.59999C4.304 1.60879 4.2896 1.61599 4.272 1.61599C4.2544 1.61599 4.24 1.62319 4.24 1.63199C4.24 1.64079 4.22604 1.64799 4.20896 1.64799C4.19188 1.64799 4.1738 1.65463 4.16876 1.66275C4.16376 1.67087 4.13632 1.68255 4.1078 1.68871C4.07932 1.69487 4.0254 1.71687 3.988 1.73763C3.9506 1.75839 3.91988 1.77011 3.91976 1.76367C3.91964 1.75723 3.91424 1.75935 3.90776 1.76839C3.8956 1.78531 3.79104 1.83907 3.7 1.87519C3.6714 1.88651 3.648 1.90011 3.648 1.90535C3.648 1.91059 3.6174 1.92447 3.58 1.93623C3.5426 1.94795 3.50516 1.96351 3.4968 1.97079C3.48844 1.97803 3.46744 1.98399 3.45012 1.98399C3.43284 1.98399 3.42336 1.98867 3.42908 1.99443C3.44256 2.00787 3.36548 2.04799 3.32616 2.04799C3.30956 2.04799 3.29596 2.05339 3.29588 2.05999C3.29572 2.07435 3.21824 2.11199 3.1888 2.11199C3.17736 2.11199 3.168 2.11919 3.168 2.12799C3.168 2.13679 3.1572 2.14399 3.144 2.14399C3.1308 2.14399 3.12 2.15119 3.12 2.15999C3.12 2.16879 3.102 2.17599 3.08 2.17599C3.058 2.17599 3.04 2.18183 3.04 2.18899C3.04 2.19615 3.0148 2.21191 2.984 2.22399C2.9532 2.23607 2.928 2.25183 2.928 2.25899C2.928 2.26615 2.9064 2.27199 2.88 2.27199C2.8536 2.27199 2.832 2.27919 2.832 2.28799C2.832 2.29679 2.8176 2.30399 2.8 2.30399C2.7824 2.30399 2.768 2.31119 2.768 2.31999C2.768 2.32879 2.7536 2.33599 2.736 2.33599C2.7184 2.33599 2.704 2.34439 2.704 2.35467C2.704 2.36491 2.69952 2.36887 2.69408 2.36339C2.6886 2.35795 2.64204 2.37475 2.59052 2.40075C2.53904 2.42671 2.48592 2.44799 2.47244 2.44799C2.459 2.44799 2.448 2.45519 2.448 2.46399C2.448 2.47279 2.43696 2.47999 2.42344 2.47999C2.40992 2.47999 2.38112 2.49163 2.35944 2.50583C2.33776 2.52003 2.32 2.52671 2.32 2.52067C2.32 2.51463 2.3086 2.52107 2.29472 2.53499C2.2808 2.54891 2.2628 2.55619 2.25472 2.55119C2.2466 2.54619 2.24 2.54971 2.24 2.55903C2.24 2.56835 2.2256 2.57599 2.208 2.57599C2.1904 2.57599 2.17596 2.58139 2.17588 2.58799C2.17572 2.60235 2.09824 2.63999 2.0688 2.63999C2.05736 2.63999 2.048 2.64719 2.048 2.65599C2.048 2.66479 2.0336 2.67199 2.016 2.67199C1.9984 2.67199 1.984 2.67919 1.984 2.68799C1.984 2.69679 1.97004 2.70399 1.95296 2.70399C1.93588 2.70399 1.91744 2.71119 1.912 2.71999C1.90656 2.72879 1.88812 2.73599 1.87104 2.73599C1.85396 2.73599 1.84 2.74319 1.84 2.75199C1.84 2.76079 1.83064 2.76799 1.8192 2.76799C1.78976 2.76799 1.71228 2.80563 1.71212 2.81999C1.71204 2.82659 1.6976 2.83199 1.68 2.83199C1.6624 2.83199 1.648 2.83919 1.648 2.84799C1.648 2.85679 1.6336 2.86399 1.616 2.86399C1.5984 2.86399 1.584 2.87119 1.584 2.87999C1.584 2.88879 1.5696 2.89599 1.552 2.89599C1.5344 2.89599 1.52 2.90319 1.52 2.91199C1.52 2.92079 1.50848 2.92799 1.4944 2.92799C1.42412 2.92799 1.328 3.07627 1.328 3.18471C1.328 3.22935 1.32252 3.26251 1.31584 3.25835C1.30912 3.25423 1.30148 3.29159 1.2988 3.34143C1.29612 3.39123 1.2872 3.43883 1.27896 3.44719C1.27072 3.45555 1.264 3.50415 1.264 3.55519C1.264 3.60623 1.25804 3.64799 1.25072 3.64799C1.24344 3.64799 1.23584 3.68815 1.23388 3.73723C1.23188 3.78635 1.22344 3.84439 1.21512 3.86627C1.2068 3.88815 1.2 3.93799 1.2 3.97703C1.2 4.01607 1.19404 4.04799 1.18672 4.04799C1.17944 4.04799 1.1718 4.08923 1.16976 4.13963C1.16772 4.19007 1.1606 4.23507 1.15392 4.23963C1.14724 4.24423 1.13988 4.28759 1.13752 4.33599C1.13516 4.38439 1.12764 4.43119 1.1208 4.43999C1.11396 4.44879 1.1072 4.49543 1.10576 4.54363C1.10432 4.59179 1.09616 4.63823 1.08756 4.64683C1.079 4.65539 1.072 4.70295 1.072 4.75251C1.072 4.80211 1.0666 4.84807 1.06 4.85467C1.0534 4.86127 1.04728 4.89683 1.04644 4.93371C1.04556 4.97063 1.03716 5.02583 1.02776 5.05639C1.01836 5.08699 1.00996 5.13719 1.00908 5.16799C1.00548 5.29575 0.988201 5.42399 0.974561 5.42399C0.966561 5.42399 0.960001 5.47123 0.960001 5.52895C0.960001 5.58667 0.954001 5.63019 0.946721 5.62567C0.939401 5.62115 0.931761 5.65831 0.929761 5.70823C0.927721 5.75819 0.920001 5.80647 0.912561 5.81551C0.899961 5.83087 0.894161 5.87567 0.870241 6.14255C0.864041 6.21155 0.856361 6.23771 0.846761 6.22255C0.837561 6.20803 0.832401 6.23843 0.832241 6.30799C0.832121 6.36915 0.825081 6.41599 0.816001 6.41599C0.807201 6.41599 0.800841 6.42139 0.801881 6.42799C0.810561 6.48283 0.797121 6.62407 0.784001 6.61599C0.774001 6.60983 0.768001 6.64251 0.768001 6.70303C0.768001 6.75699 0.760921 6.79999 0.752001 6.79999C0.743201 6.79999 0.736001 6.80763 0.736001 6.81695C0.736001 6.82627 0.745001 6.82879 0.756001 6.82259C0.772001 6.81355 0.772001 6.81559 0.756001 6.83283C0.745001 6.84471 0.736001 6.88851 0.736001 6.93023C0.736001 6.97195 0.728801 7.01055 0.720001 7.01599C0.711201 7.02143 0.704001 7.06507 0.704001 7.11295C0.704001 7.16083 0.697881 7.19999 0.690401 7.19999C0.682921 7.19999 0.675481 7.24499 0.673841 7.29999C0.672241 7.35499 0.663961 7.40239 0.655441 7.40531C0.646961 7.40827 0.640001 7.45283 0.640001 7.50439C0.640001 7.55591 0.632801 7.60255 0.624001 7.60799C0.615201 7.61343 0.608001 7.65663 0.608001 7.70399C0.608001 7.75135 0.600801 7.79455 0.592001 7.79999C0.583201 7.80543 0.576001 7.84763 0.576001 7.89375C0.576001 7.93987 0.567001 7.98727 0.556001 7.99915C0.539761 8.01663 0.540481 8.01831 0.560001 8.00799C0.579521 7.99767 0.580241 7.99935 0.564001 8.01683C0.553001 8.02871 0.544001 8.07251 0.544001 8.11423C0.544001 8.15595 0.536801 8.19455 0.528001 8.19999C0.519201 8.20543 0.512001 8.22631 0.512001 8.24635V8.28287L0.628001 8.26255C0.973441 8.20211 2.62988 8.01195 2.658 8.02951C2.69436 8.05223 2.74672 8.05351 2.76 8.03199C2.76544 8.02319 2.82304 8.01599 2.888 8.01599C2.95296 8.01599 3.01056 8.00879 3.016 7.99999C3.02144 7.99119 3.07904 7.98399 3.144 7.98399C3.20896 7.98399 3.26656 7.97679 3.272 7.96799C3.27744 7.95919 3.33144 7.95199 3.392 7.95199C3.45256 7.95199 3.50656 7.94479 3.512 7.93599C3.51744 7.92719 3.57504 7.91999 3.64 7.91999C3.70496 7.91999 3.76256 7.91279 3.768 7.90399C3.77344 7.89519 3.83104 7.88799 3.896 7.88799C3.96096 7.88799 4.01856 7.88079 4.024 7.87199C4.02944 7.86319 4.08748 7.85599 4.15296 7.85599C4.22164 7.85599 4.272 7.84923 4.272 7.83999C4.272 7.83075 4.32236 7.82399 4.39104 7.82399C4.45652 7.82399 4.51456 7.81679 4.52 7.80799C4.52544 7.79919 4.56784 7.79199 4.61428 7.79199H4.69864L4.691 7.70011C4.68684 7.64959 4.69188 7.49299 4.70228 7.35211C4.71268 7.21127 4.72816 6.99519 4.73672 6.87199C4.76492 6.46459 4.78476 6.18663 4.80068 5.97599C4.80928 5.86159 4.83424 5.51959 4.85612 5.21599C4.9586 3.79347 4.95868 3.79267 5.00024 3.71983C5.0968 3.55063 5.34028 3.54039 5.46232 3.70039C5.52944 3.78835 5.52964 3.80655 5.47168 4.60799C5.44368 4.99503 5.42332 5.27411 5.40772 5.48399C5.39908 5.60059 5.38512 5.79139 5.37668 5.90799C5.36824 6.02459 5.35384 6.22259 5.34468 6.34799C5.32728 6.58579 5.3054 6.88655 5.2798 7.23999C5.25864 7.53211 5.23476 7.78903 5.22192 7.86247C5.21444 7.90539 5.2164 7.92163 5.2282 7.91435C5.23768 7.90847 5.25628 7.91455 5.26956 7.92783C5.28284 7.94111 5.30144 7.95199 5.31084 7.95199C5.32028 7.95199 5.328 7.95919 5.328 7.96799C5.328 7.97679 5.33888 7.98399 5.3522 7.98399C5.3792 7.98399 5.4424 8.01627 5.45828 8.03815C5.46392 8.04595 5.48656 8.04779 5.50856 8.04227C5.53808 8.03487 5.58148 8.05035 5.67428 8.10151C5.74344 8.13959 5.8576 8.20195 5.928 8.24007C5.9984 8.27823 6.0812 8.32367 6.112 8.34111C6.1428 8.35855 6.2148 8.39775 6.272 8.42827C6.37028 8.48067 6.45836 8.52871 6.624 8.62019C6.74736 8.68831 7.25196 8.96335 7.336 9.00827C7.38 9.03179 7.4412 9.06535 7.472 9.08279C7.5028 9.10027 7.5856 9.14559 7.656 9.18351C7.7264 9.22143 7.7912 9.25803 7.8 9.26479C7.8634 9.31363 8.02336 9.29867 8.09664 9.23699C8.14032 9.20027 8.85168 8.35451 8.9622 8.20795C8.9854 8.17715 9.0178 8.13639 9.0342 8.11735C9.07076 8.07483 9.04916 8.10075 9.43344 7.63819C9.60808 7.42799 9.75488 7.25239 9.75968 7.24799C9.76452 7.24359 9.80076 7.20051 9.8402 7.15223C9.87968 7.10399 9.924 7.04999 9.93864 7.03223C9.95328 7.01451 10.0098 6.94599 10.0642 6.87999C10.1186 6.81399 10.1786 6.74191 10.1976 6.71983C10.2165 6.69775 10.2643 6.64015 10.3038 6.59183C10.3432 6.54351 10.3794 6.50039 10.384 6.49599C10.3886 6.49159 10.4246 6.44839 10.464 6.39999C10.5034 6.35159 10.5396 6.30839 10.5445 6.30399C10.6692 6.19191 10.7313 6.05147 10.7124 5.92387C10.6992 5.83555 10.5914 5.27423 10.544 5.04799C10.5366 5.01279 10.5222 4.94079 10.512 4.88799C10.5018 4.83519 10.4874 4.76319 10.48 4.72799C10.4726 4.69279 10.459 4.62439 10.4498 4.57599C10.4406 4.52759 10.4283 4.46639 10.4225 4.43999C10.4167 4.41359 10.4134 4.33259 10.4152 4.25999C10.4173 4.17447 10.4124 4.12799 10.4012 4.12799C10.391 4.12799 10.384 4.09211 10.384 4.03999C10.384 3.99159 10.3768 3.95199 10.368 3.95199C10.3592 3.95199 10.352 3.91643 10.352 3.87295C10.352 3.82947 10.3458 3.79007 10.3383 3.78543C10.3246 3.77695 10.2994 3.60679 10.3021 3.54079C10.3029 3.52143 10.2964 3.50119 10.2878 3.49583C10.2791 3.49047 10.272 3.45455 10.272 3.41599C10.272 3.37743 10.2648 3.34143 10.256 3.33599C10.2472 3.33055 10.24 3.30539 10.24 3.28007C10.24 3.25479 10.233 3.21575 10.2245 3.19335C10.216 3.17099 10.2076 3.12551 10.2058 3.09231C10.204 3.05915 10.197 3.02451 10.1901 3.01539C10.1833 3.00623 10.1759 2.96843 10.1737 2.93139C10.1715 2.89431 10.164 2.86399 10.1569 2.86399C10.1498 2.86399 10.144 2.82843 10.144 2.78495C10.144 2.74147 10.1368 2.70143 10.128 2.69599C10.1192 2.69055 10.112 2.65455 10.112 2.61599C10.112 2.57743 10.1048 2.54143 10.096 2.53599C10.0872 2.53055 10.08 2.49471 10.08 2.45639C10.08 2.41803 10.0732 2.38427 10.0648 2.38131C10.0565 2.37839 10.048 2.34219 10.0459 2.30087C10.0438 2.25955 10.0362 2.22939 10.029 2.23379C10.0219 2.23823 10.016 2.20691 10.016 2.16415C10.016 2.12139 10.0095 2.07955 10.0016 2.07119C9.9936 2.06283 9.98304 2.02359 9.97804 1.98399C9.95664 1.81335 9.94788 1.76711 9.93436 1.75279C9.92648 1.74443 9.92 1.70707 9.92 1.66975C9.92 1.63243 9.9128 1.59743 9.904 1.59199C9.8952 1.58655 9.888 1.55055 9.888 1.51199C9.888 1.47343 9.8808 1.43743 9.872 1.43199C9.8632 1.42655 9.856 1.38611 9.856 1.34211C9.856 1.29283 9.84984 1.26591 9.84 1.27199C9.83016 1.27807 9.824 1.25115 9.824 1.20187C9.824 1.15787 9.8168 1.11743 9.808 1.11199C9.7992 1.10655 9.792 1.07011 9.792 1.03103C9.792 0.991947 9.7848 0.959987 9.776 0.959987C9.7672 0.959987 9.76 0.927587 9.76 0.887987C9.76 0.848387 9.7528 0.815987 9.744 0.815987C9.7352 0.815987 9.728 0.795787 9.728 0.771107C9.728 0.724507 9.65576 0.634227 9.58792 0.595987C9.54592 0.572307 9.33304 0.568947 9.32532 0.591867Z"
          fill="#92a9ed"/>
    <path fill-rule="evenodd" clip-rule="evenodd"
          d="M5.32 1.10015C5.2936 1.11379 5.26672 1.13283 5.26024 1.14247C5.25376 1.15211 5.24836 1.15435 5.24824 1.14743C5.24812 1.14051 5.2318 1.14383 5.212 1.15483C5.1922 1.16579 5.1706 1.17327 5.164 1.17139C5.1574 1.16951 5.15156 1.19139 5.15104 1.21999C5.15 1.27631 5.12768 1.62735 5.10396 1.95999C5.0958 2.07439 5.08248 2.28083 5.07432 2.41871C5.06616 2.55663 5.0544 2.67763 5.04824 2.68763C4.9914 2.77955 5.16976 2.99199 5.3038 2.99199C5.50976 2.99199 5.55952 2.91267 5.58472 2.54399C5.59284 2.42519 5.60712 2.21999 5.6164 2.08799C5.62572 1.95599 5.6398 1.75079 5.64768 1.63199C5.6556 1.51319 5.667 1.35659 5.67308 1.28399C5.683 1.16511 5.68136 1.15199 5.65636 1.15199C5.63784 1.15199 5.63176 1.14371 5.63812 1.12715C5.64336 1.11351 5.64196 1.10583 5.63504 1.11011C5.62812 1.11439 5.6124 1.11167 5.60008 1.10407C5.58732 1.09615 5.5658 1.09663 5.54984 1.10515C5.53272 1.11431 5.5184 1.11435 5.51276 1.10523C5.50772 1.09707 5.51628 1.08711 5.5318 1.08307C5.54732 1.07903 5.5168 1.07563 5.464 1.07555C5.40836 1.07547 5.3478 1.08579 5.32 1.10015ZM5.11096 3.63927C5.01532 3.69663 4.98004 3.77995 4.96848 3.97599C4.96328 4.06399 4.95232 4.22239 4.94408 4.32799C4.93588 4.43359 4.92176 4.62079 4.91272 4.74399C4.90368 4.86719 4.88932 5.06159 4.8808 5.17599C4.87224 5.29038 4.85776 5.48479 4.84856 5.60798C4.81412 6.06974 4.80064 6.25434 4.78484 6.47998C4.72228 7.37274 4.70204 7.72786 4.71264 7.74502C4.72508 7.76514 4.816 7.76422 4.816 7.74398C4.816 7.70406 4.9738 7.72822 5.0796 7.78434C5.21032 7.8537 5.20892 7.85462 5.22228 7.69246C5.24432 7.42498 5.26368 7.17038 5.2792 6.94398C5.28796 6.81638 5.31344 6.45998 5.33588 6.15198C5.35828 5.84399 5.38384 5.49119 5.39268 5.36799C5.4246 4.92235 5.4416 4.69231 5.45712 4.49599C5.46584 4.38599 5.47696 4.17719 5.4818 4.03199L5.49064 3.76799L5.441 3.70899C5.3452 3.59523 5.22636 3.57011 5.11096 3.63927ZM10.4251 4.37999C10.4401 4.48331 10.448 4.48563 10.448 4.38667C10.448 4.33903 10.4408 4.30399 10.431 4.30399C10.4199 4.30399 10.4178 4.33015 10.4251 4.37999ZM10.458 4.54399C10.471 4.63363 10.4801 4.64639 10.4798 4.57467C10.4796 4.54459 10.4723 4.50919 10.4635 4.49599C10.4524 4.47923 10.4507 4.49367 10.458 4.54399ZM10.4891 4.69599C10.4938 4.73119 10.5039 4.78879 10.5115 4.82399C10.5192 4.85919 10.5339 4.93119 10.5442 4.98399C10.5732 5.13171 10.5938 5.23383 10.6087 5.30399C10.6162 5.33919 10.6268 5.39571 10.6322 5.42963C10.6376 5.46351 10.6459 5.48738 10.6506 5.4827C10.6605 5.47282 10.5155 4.71199 10.4946 4.66399C10.485 4.64191 10.4833 4.65187 10.4891 4.69599ZM10.6595 5.54399C10.6593 5.57039 10.665 5.60999 10.672 5.63199L10.6848 5.67199L10.6845 5.63199C10.6844 5.60999 10.6787 5.57039 10.672 5.54399L10.6598 5.49598L10.6595 5.54399ZM10.6912 5.71199C10.6912 5.73399 10.697 5.76999 10.704 5.79199L10.7168 5.83199V5.79199C10.7168 5.76999 10.711 5.73399 10.704 5.71199L10.6912 5.67199V5.71199ZM10.7269 5.95998C10.7278 6.0717 10.7229 6.09511 10.6882 6.14399C10.6509 6.19639 10.1298 6.82902 10.0588 6.90798C10.041 6.92778 10.0331 6.94374 10.0412 6.9435C10.0494 6.94322 10.0789 6.91262 10.1069 6.8755C10.135 6.83834 10.171 6.79358 10.1869 6.77598C10.2029 6.75838 10.2483 6.70438 10.2878 6.65598C10.3272 6.60758 10.3633 6.56438 10.3679 6.55998C10.4189 6.5111 10.7019 6.15554 10.7235 6.11314C10.7524 6.05646 10.7587 5.94631 10.7373 5.87199C10.7304 5.84803 10.7262 5.8833 10.7269 5.95998ZM9.74068 7.29118C9.11324 8.0423 8.96 8.22838 8.96 8.23934C8.96 8.24566 8.93932 8.27538 8.91408 8.30542C8.88884 8.33542 8.77924 8.46798 8.6706 8.59998C8.56196 8.73198 8.46912 8.84358 8.46432 8.84798C8.45948 8.85238 8.42324 8.89538 8.3838 8.94354C7.99796 9.4141 8.01184 9.41158 7.472 9.10762C7.4324 9.08534 7.3622 9.04658 7.316 9.02154C7.2052 8.96142 7.08588 8.89654 6.968 8.83222C6.9152 8.80342 6.7856 8.73282 6.68 8.6753C6.5744 8.61782 6.4592 8.55478 6.424 8.53522C6.35648 8.49774 6.20064 8.41386 6.08 8.35006C6.0404 8.3291 6.0044 8.30838 6 8.30398C5.9956 8.29958 5.9632 8.2811 5.928 8.2629C5.78164 8.18726 5.607 8.09086 5.5928 8.0779C5.54056 8.03006 5.52 8.0623 5.52 8.19198C5.52 8.26238 5.52648 8.31998 5.5344 8.31998C5.54228 8.31998 5.5498 8.41894 5.55112 8.5399C5.5524 8.66086 5.56032 8.7667 5.56872 8.7751C5.57712 8.7835 5.584 8.8857 5.584 9.00222C5.584 9.12622 5.59064 9.21818 5.6 9.22398C5.60932 9.22974 5.616 9.31906 5.616 9.43774C5.616 9.54986 5.62264 9.64842 5.6308 9.65678C5.63892 9.66514 5.64984 9.76558 5.655 9.87998C5.66604 10.1237 5.68784 10.5015 5.70072 10.672C5.70892 10.781 5.7254 11.0391 5.73556 11.2178C5.73772 11.2564 5.7444 11.3528 5.75036 11.432C5.76988 11.6912 5.77628 11.7821 5.78476 11.92C5.78936 11.9948 5.79668 12.0992 5.801 12.152C5.80532 12.2048 5.81412 12.3524 5.82056 12.48C5.82696 12.6076 5.8372 12.7197 5.84332 12.7292C5.84944 12.7387 5.85556 12.8323 5.85688 12.9372C5.85824 13.0421 5.8652 13.1352 5.87236 13.144C5.87952 13.1529 5.88976 13.2609 5.89516 13.384C5.90052 13.5072 5.90872 13.6978 5.91344 13.8075C5.91812 13.9173 5.92832 14.0147 5.93612 14.0241C5.94392 14.0335 5.95144 14.1345 5.9528 14.2486C5.95416 14.3627 5.96116 14.4632 5.96832 14.472C5.97544 14.4808 5.98556 14.5816 5.9908 14.696C6.01124 15.1431 6.0186 15.2405 6.03304 15.2552C6.04128 15.2635 6.048 15.2833 6.048 15.2992C6.048 15.315 6.0552 15.328 6.064 15.328C6.0728 15.328 6.08 15.3351 6.08 15.3438C6.08 15.3681 6.1326 15.424 6.15556 15.424C6.1668 15.424 6.176 15.4297 6.176 15.4367C6.176 15.4815 6.34416 15.4866 7.87844 15.4874C9.54384 15.4883 9.51388 15.4897 9.59984 15.412C9.62176 15.3922 9.64516 15.376 9.65184 15.376C9.65852 15.376 9.664 15.3652 9.664 15.352C9.664 15.3388 9.6712 15.328 9.68 15.328C9.6888 15.328 9.696 15.3028 9.696 15.272C9.696 15.2412 9.7032 15.216 9.712 15.216C9.7208 15.216 9.728 15.1764 9.728 15.128C9.728 15.0796 9.7352 15.04 9.744 15.04C9.75288 15.04 9.76 14.9973 9.76 14.944C9.76 14.8907 9.76712 14.848 9.776 14.848C9.78504 14.848 9.792 14.8027 9.792 14.744C9.792 14.6853 9.79896 14.64 9.808 14.64C9.81688 14.64 9.824 14.5973 9.824 14.544C9.824 14.4907 9.83112 14.448 9.84 14.448C9.84888 14.448 9.856 14.4056 9.856 14.3529C9.856 14.3007 9.8632 14.2534 9.872 14.248C9.8808 14.2425 9.888 14.1957 9.888 14.144C9.888 14.0922 9.8952 14.0454 9.904 14.04C9.9128 14.0345 9.92 13.9909 9.92 13.943C9.92 13.8915 9.92704 13.856 9.93724 13.856C9.94836 13.856 9.95308 13.8123 9.95056 13.732C9.9484 13.6638 9.95452 13.5612 9.96416 13.504C9.97384 13.4468 9.98996 13.346 10 13.28C10.0101 13.214 10.0247 13.1204 10.0326 13.072C10.0404 13.0236 10.0548 12.9336 10.0646 12.872C10.0843 12.747 10.106 12.612 10.1274 12.48C10.152 12.3286 10.1768 12.1717 10.192 12.072C10.2 12.0192 10.2136 11.9328 10.2222 11.88C10.2307 11.8272 10.2454 11.7336 10.2548 11.672C10.2641 11.6104 10.2856 11.4736 10.3026 11.368C10.493 10.1809 10.4932 10.222 10.2979 9.96314C10.204 9.83866 10.1534 9.77278 9.95148 9.51198C9.85256 9.38418 9.613 9.07218 9.448 8.85618C9.3864 8.77558 9.25436 8.60362 9.1546 8.47414L8.9732 8.23866L9.01436 8.1847C9.037 8.15502 9.06472 8.12114 9.07592 8.10938C9.09244 8.09206 9.50876 7.59418 9.6 7.48262C9.6132 7.4665 9.63724 7.4377 9.6534 7.41862C9.70384 7.35914 9.79964 7.24446 9.8962 7.12798C9.94724 7.06638 9.9998 7.00338 10.013 6.98798C10.0262 6.97258 10.0326 6.95998 10.0272 6.95998C10.0218 6.95998 9.89284 7.10902 9.74068 7.29118ZM2.552 8.04054C2.5432 8.04386 2.4676 8.05462 2.384 8.06446C2.14004 8.09318 1.9928 8.11086 1.856 8.12798C1.7856 8.13678 1.6704 8.15118 1.6 8.15998C1.5296 8.16878 1.4126 8.1837 1.34 8.1931C1.09776 8.22458 0.868203 8.25246 0.605243 8.28238L0.530483 8.2909L0.539323 8.34946C0.544203 8.38162 0.554443 8.41482 0.562083 8.42318C0.569723 8.43154 0.576003 8.46214 0.576003 8.49118C0.576003 8.52022 0.583203 8.54398 0.592003 8.54398C0.600803 8.54398 0.608003 8.56874 0.608003 8.59902C0.608003 8.6293 0.614403 8.65806 0.622243 8.6629C0.630043 8.66774 0.640843 8.69694 0.646243 8.72782C0.651603 8.7587 0.660403 8.80918 0.665763 8.83998C0.671123 8.87078 0.681163 8.89598 0.688083 8.89598C0.695003 8.89598 0.704723 8.92298 0.709723 8.95598C0.731363 9.09918 0.740363 9.13598 0.753763 9.13598C0.761603 9.13598 0.768003 9.16074 0.768003 9.19102C0.768003 9.2213 0.774403 9.25006 0.782243 9.2549C0.790043 9.25974 0.800843 9.28894 0.806243 9.31982C0.811603 9.3507 0.820403 9.40126 0.825763 9.43214C0.831163 9.46302 0.841963 9.49222 0.849763 9.49706C0.857603 9.5019 0.864003 9.52662 0.864003 9.55198C0.864003 9.57734 0.871203 9.60254 0.880003 9.60798C0.888803 9.61342 0.896003 9.63862 0.896003 9.66398C0.896003 9.68934 0.903203 9.71454 0.912003 9.71998C0.920803 9.72542 0.928003 9.75422 0.928003 9.78398C0.928003 9.81374 0.935203 9.84254 0.944003 9.84798C0.952803 9.85342 0.960003 9.88266 0.960003 9.91294C0.960003 9.94322 0.967203 9.96798 0.976003 9.96798C0.984803 9.96798 0.992003 9.99318 0.992003 10.024C0.992003 10.0548 0.999203 10.08 1.008 10.08C1.0168 10.08 1.024 10.1001 1.024 10.1248C1.024 10.1495 1.04228 10.2305 1.0646 10.3048C1.08696 10.3791 1.10772 10.4544 1.1108 10.472C1.11384 10.4896 1.12504 10.5364 1.13564 10.576C1.14628 10.6156 1.1588 10.6732 1.16352 10.704C1.1682 10.7348 1.18644 10.7803 1.204 10.8052C1.22156 10.8301 1.24176 10.8733 1.24884 10.9012C1.25596 10.9291 1.27668 11.0078 1.29488 11.076C1.31312 11.1442 1.34184 11.2522 1.35876 11.316C1.37564 11.3798 1.40032 11.4716 1.41356 11.52C1.44168 11.6228 1.49732 11.8298 1.5276 11.944C1.53924 11.988 1.57216 12.1104 1.60072 12.216C1.62928 12.3216 1.6528 12.417 1.653 12.428C1.65324 12.4435 1.74848 12.448 2.07488 12.448H2.49644L2.9122 12.0321L3.328 11.6162V11.529C3.328 11.4811 3.3208 11.4374 3.312 11.432C3.3032 11.4265 3.296 11.3865 3.296 11.343C3.296 11.2995 3.28948 11.264 3.28156 11.264C3.26804 11.264 3.26116 11.2239 3.23816 11.012C3.23312 10.9658 3.22252 10.928 3.21452 10.928C3.20652 10.928 3.2 10.8924 3.2 10.8489C3.2 10.8055 3.1928 10.7654 3.184 10.76C3.1752 10.7545 3.168 10.7141 3.168 10.6701C3.168 10.6208 3.16184 10.5939 3.152 10.6C3.14208 10.6061 3.136 10.5761 3.136 10.5209C3.136 10.472 3.1288 10.432 3.12 10.432C3.1112 10.432 3.104 10.396 3.104 10.352C3.104 10.308 3.0968 10.272 3.088 10.272C3.0792 10.272 3.072 10.2324 3.072 10.184C3.072 10.1356 3.0648 10.096 3.056 10.096C3.0472 10.096 3.04 10.06 3.04 10.016C3.04 9.97198 3.03348 9.93598 3.02548 9.93598C3.01748 9.93598 3.00712 9.89818 3.00244 9.85198C2.98444 9.6751 2.95568 9.50478 2.93288 9.43998C2.92824 9.42678 2.9224 9.39078 2.91992 9.35998C2.91744 9.32918 2.90672 9.26078 2.89608 9.20798C2.86228 9.03982 2.84756 8.95418 2.83764 8.8677C2.83232 8.82134 2.82168 8.7795 2.814 8.77474C2.80628 8.76998 2.8 8.73094 2.8 8.68798C2.8 8.64502 2.7928 8.60542 2.784 8.59998C2.7752 8.59454 2.768 8.55954 2.768 8.52222C2.768 8.4849 2.76148 8.44754 2.75356 8.43918C2.7456 8.43082 2.73512 8.39158 2.73028 8.35198C2.70348 8.13302 2.69304 8.0873 2.66284 8.0571C2.63952 8.03378 2.58968 8.02634 2.552 8.04054Z"
          fill="#879ddd"/>
    <path fill-rule="evenodd" clip-rule="evenodd"
          d="M10.4534 4.39599C10.4607 4.47903 10.4736 4.55459 10.5045 4.69599C10.5103 4.72239 10.5426 4.88439 10.5764 5.05599C10.7778 6.07871 10.7699 6.02206 10.7235 6.11314C10.7019 6.15554 10.4189 6.5111 10.3679 6.55998C10.3633 6.56438 10.3274 6.60758 10.288 6.65598C10.2486 6.70438 10.2126 6.74759 10.208 6.75199C10.2034 6.75639 10.1672 6.79946 10.1278 6.84774C10.0883 6.89598 10.0439 6.94998 10.0292 6.96774C10.0144 6.98546 9.95764 7.05398 9.90304 7.11998C9.8098 7.2327 9.72096 7.33894 9.6534 7.41862C9.63724 7.4377 9.6132 7.4665 9.6 7.48262C9.50876 7.59418 9.09244 8.09206 9.07592 8.10938C9.06472 8.12114 9.037 8.15502 9.01436 8.1847L8.9732 8.23866L9.1546 8.47414C9.25436 8.60362 9.3864 8.77558 9.448 8.85618C9.6106 9.06902 9.85192 9.38338 9.9484 9.50798C10.4448 10.1492 10.4494 10.157 10.4498 10.3466C10.45 10.4289 10.4214 10.6273 10.3026 11.368C10.2856 11.4736 10.2641 11.6104 10.2548 11.672C10.2454 11.7336 10.2307 11.8272 10.2222 11.88C10.2136 11.9328 10.2 12.0192 10.192 12.072C10.1769 12.1714 10.1522 12.3277 10.1274 12.48C10.1196 12.5284 10.1052 12.6184 10.0954 12.68C10.0857 12.7416 10.0713 12.8316 10.0634 12.88C10.0477 12.977 10.0212 13.1443 10 13.28C9.99248 13.3284 9.97724 13.422 9.9662 13.488C9.93628 13.6665 9.94496 13.7627 10.002 13.8859C10.029 13.9442 10.057 14.0064 10.0642 14.024C10.0714 14.0416 10.0869 14.0794 10.0986 14.108C10.1102 14.1366 10.1252 14.16 10.1319 14.16C10.1386 14.16 10.144 14.1744 10.144 14.192C10.144 14.2096 10.1512 14.224 10.16 14.224C10.1688 14.224 10.176 14.2346 10.176 14.2475C10.176 14.2604 10.1904 14.2967 10.208 14.328C10.2256 14.3593 10.24 14.3985 10.24 14.4151C10.24 14.4317 10.2454 14.4477 10.252 14.4507C10.2586 14.4536 10.2792 14.4884 10.2978 14.528C10.3442 14.627 10.3894 14.7263 10.3924 14.736C10.3996 14.759 10.4509 14.8757 10.4644 14.8998C10.473 14.9151 10.48 14.9353 10.48 14.9449C10.48 14.9545 10.4912 14.9734 10.5048 14.9871C10.5184 15.0007 10.5337 15.0326 10.5388 15.0579C10.5438 15.0833 10.5543 15.104 10.562 15.104C10.5697 15.104 10.576 15.1184 10.576 15.136C10.576 15.1536 10.5832 15.168 10.592 15.168C10.6008 15.168 10.608 15.1819 10.608 15.199C10.608 15.2161 10.6152 15.2345 10.624 15.24C10.6328 15.2454 10.64 15.2627 10.64 15.2784C10.64 15.3203 10.767 15.445 10.8331 15.4681C10.9065 15.4937 13.92 15.4975 13.92 15.472C13.92 15.4632 13.9309 15.456 13.9442 15.456C13.9977 15.456 14.112 15.3638 14.112 15.3207C14.112 15.3071 14.1192 15.296 14.128 15.296C14.1368 15.296 14.144 15.2712 14.144 15.2409C14.144 15.2107 14.1512 15.1814 14.16 15.176C14.1688 15.1705 14.176 15.1345 14.176 15.096C14.176 15.0574 14.1818 15.0223 14.1888 15.0179C14.1958 15.0136 14.2034 14.9793 14.2056 14.9416C14.2079 14.904 14.2157 14.8657 14.223 14.8566C14.2304 14.8475 14.2404 14.8112 14.2453 14.776C14.2502 14.7408 14.2624 14.6688 14.2725 14.616C14.2826 14.5632 14.2924 14.4967 14.2944 14.4683C14.2963 14.4399 14.3029 14.4117 14.309 14.4057C14.315 14.3996 14.32 14.3603 14.32 14.3183C14.32 14.2763 14.3272 14.2374 14.336 14.232C14.3448 14.2265 14.352 14.1901 14.352 14.151C14.352 14.1119 14.3592 14.08 14.368 14.08C14.3768 14.08 14.384 14.044 14.384 14C14.384 13.956 14.3912 13.92 14.4 13.92C14.4088 13.92 14.416 13.8916 14.416 13.8569C14.416 13.8223 14.4232 13.7894 14.432 13.784C14.4408 13.7785 14.448 13.7425 14.448 13.704C14.448 13.6654 14.4552 13.6294 14.464 13.624C14.4728 13.6185 14.48 13.5825 14.48 13.544C14.48 13.5054 14.4872 13.4694 14.496 13.464C14.5048 13.4585 14.512 13.4189 14.512 13.376C14.512 13.333 14.5192 13.2934 14.528 13.288C14.5368 13.2825 14.544 13.2461 14.544 13.207C14.544 13.1679 14.5505 13.136 14.5584 13.136C14.5663 13.136 14.5767 13.1054 14.5814 13.068C14.5862 13.0306 14.5981 12.9604 14.6079 12.912C14.6176 12.8636 14.6296 12.7952 14.6344 12.76C14.6393 12.7248 14.6498 12.6891 14.6576 12.6808C14.6655 12.6724 14.672 12.631 14.672 12.5888C14.672 12.5465 14.6792 12.512 14.688 12.512C14.6968 12.512 14.704 12.476 14.704 12.432C14.704 12.388 14.7103 12.352 14.718 12.352C14.7256 12.352 14.7363 12.3178 14.7417 12.276C14.7559 12.1652 14.7691 12.0913 14.7796 12.064C14.8022 12.0053 14.8104 11.9017 14.7945 11.8761C14.7879 11.8654 14.7896 11.8295 14.7981 11.7963C14.8067 11.7631 14.822 11.6928 14.8322 11.64C14.8423 11.5872 14.857 11.5152 14.8649 11.48C14.8727 11.4448 14.9478 11.0668 15.0318 10.64C15.1157 10.2132 15.1909 9.83518 15.1989 9.79998C15.2069 9.76478 15.2218 9.69278 15.232 9.63998C15.2422 9.58718 15.2566 9.51518 15.264 9.47998C15.2714 9.44478 15.2858 9.37278 15.296 9.31998C15.3062 9.26718 15.3206 9.19518 15.328 9.15998C15.3354 9.12478 15.3498 9.05278 15.36 8.99998C15.3702 8.94718 15.3848 8.87518 15.3923 8.83998C15.3998 8.80478 15.4154 8.7301 15.4268 8.67406C15.4381 8.61798 15.4563 8.5687 15.4671 8.56458C15.4961 8.55346 15.4517 8.49214 15.3792 8.44318C15.3466 8.42118 15.2879 8.37366 15.2486 8.33758C15.2094 8.3015 15.1716 8.27198 15.1646 8.27198C15.1577 8.27198 15.1224 8.24318 15.0861 8.20798C15.0498 8.17278 15.0134 8.14398 15.0051 8.14398C14.9969 8.14398 14.9946 8.13678 15 8.12798C15.0054 8.11918 14.9987 8.11198 14.985 8.11198C14.9712 8.11198 14.96 8.10478 14.96 8.09598C14.96 8.08718 14.9488 8.07998 14.935 8.07998C14.9213 8.07998 14.9146 8.07278 14.92 8.06398C14.9254 8.05518 14.9238 8.04798 14.9163 8.04798C14.9088 8.04798 14.8771 8.02458 14.8458 7.99598C14.8145 7.96738 14.7716 7.93026 14.7504 7.91346C14.7293 7.89666 14.6864 7.86066 14.655 7.83346C14.6236 7.80626 14.5702 7.76238 14.5362 7.73598C14.5022 7.70958 14.4653 7.67898 14.4543 7.66798C14.4433 7.65698 14.4212 7.64786 14.4052 7.64774C14.3805 7.64754 14.3797 7.6451 14.4 7.63198C14.4212 7.6183 14.421 7.61646 14.3992 7.61622C14.3855 7.6161 14.3417 7.58538 14.3018 7.54798C14.1506 7.40614 14.0657 7.33138 14.0144 7.29482C13.9852 7.27406 13.9292 7.22626 13.8899 7.18862C13.8506 7.15098 13.8154 7.1233 13.8116 7.1271C13.8077 7.13094 13.7878 7.11826 13.7671 7.09902C13.7465 7.07974 13.6963 7.03518 13.6555 6.99998C13.6148 6.96478 13.5643 6.91978 13.5434 6.89998C13.5226 6.88018 13.4975 6.86399 13.4878 6.86399C13.4781 6.86399 13.4736 6.85831 13.4779 6.85139C13.4822 6.84447 13.4646 6.82942 13.4388 6.81798C13.413 6.80658 13.3959 6.79063 13.4008 6.78259C13.4058 6.77455 13.4023 6.76798 13.393 6.76798C13.3838 6.76798 13.3394 6.73198 13.2944 6.68798C13.2495 6.64398 13.2057 6.60798 13.1971 6.60798C13.1885 6.60798 13.1547 6.58014 13.122 6.5461C13.0893 6.51206 13.0413 6.47306 13.0153 6.45942C12.9893 6.44582 12.9574 6.41966 12.9445 6.40134C12.9315 6.38298 12.9113 6.36798 12.8995 6.36798C12.8878 6.36798 12.8819 6.36183 12.8866 6.35431C12.8912 6.34683 12.8772 6.33259 12.8555 6.32267C12.8338 6.31279 12.816 6.29731 12.816 6.28835C12.816 6.27935 12.8089 6.27199 12.8003 6.27199C12.7916 6.27199 12.7508 6.23963 12.7095 6.20007C12.6682 6.16055 12.6313 6.13135 12.6274 6.13527C12.6235 6.13915 12.5856 6.1067 12.5432 6.06314C12.5008 6.01962 12.4584 5.98399 12.449 5.98399C12.4397 5.98399 12.432 5.97679 12.432 5.96799C12.432 5.95919 12.4248 5.95199 12.4161 5.95199C12.4073 5.95199 12.365 5.91778 12.3222 5.87598C12.2792 5.83418 12.1922 5.76039 12.1286 5.71199C12.0651 5.66359 11.9816 5.59339 11.943 5.55599C11.9044 5.51859 11.865 5.48799 11.8555 5.48799C11.8459 5.48799 11.8432 5.47967 11.8495 5.46951C11.8563 5.45851 11.854 5.45539 11.8437 5.46171C11.8342 5.46759 11.7844 5.43291 11.7332 5.38467C11.575 5.23575 11.4228 5.10611 11.3121 5.02591C11.2774 5.00079 11.2536 4.97567 11.2592 4.97011C11.2648 4.96455 11.2568 4.95999 11.2414 4.95999C11.226 4.95999 11.1858 4.93119 11.152 4.89599C11.1182 4.86079 11.0845 4.83199 11.0771 4.83199C11.0697 4.83199 11.0547 4.81759 11.0437 4.79999C11.0327 4.78239 11.0174 4.76799 11.0098 4.76799C11.002 4.76799 10.9674 4.74099 10.9327 4.70799C10.8508 4.63003 10.7163 4.51199 10.7094 4.51199C10.7064 4.51199 10.6905 4.49939 10.674 4.48399C10.6575 4.46859 10.6203 4.43799 10.5912 4.41599C10.5622 4.39399 10.5294 4.36699 10.5183 4.35599C10.5073 4.34499 10.4902 4.33599 10.4802 4.33599C10.4702 4.33599 10.4666 4.32879 10.472 4.31999C10.4774 4.31119 10.4736 4.30399 10.4635 4.30399C10.4509 4.30399 10.4477 4.33267 10.4534 4.39599ZM1.17516 10.7826C1.18012 10.7906 1.16256 10.8068 1.13608 10.8185C1.10964 10.8302 1.088 10.8452 1.088 10.8519C1.088 10.8585 1.0664 10.864 1.04 10.864C1.0136 10.864 0.992 10.8712 0.992 10.88C0.992 10.8888 0.9782 10.896 0.96132 10.896C0.94448 10.896 0.92828 10.9031 0.92532 10.9119C0.9224 10.9206 0.9002 10.9293 0.876 10.9313C0.8518 10.9333 0.832 10.9406 0.832 10.9475C0.832 10.9543 0.8176 10.96 0.8 10.96C0.7824 10.96 0.768 10.9672 0.768 10.976C0.768 10.9848 0.7464 10.992 0.72 10.992C0.6936 10.992 0.672 10.9977 0.672 11.0046C0.672 11.0115 0.6252 11.0313 0.568 11.0486C0.5108 11.0659 0.464 11.0854 0.464 11.092C0.464 11.0986 0.4498 11.104 0.43248 11.104C0.41516 11.104 0.37532 11.1184 0.344 11.136C0.31268 11.1536 0.27284 11.168 0.25552 11.168C0.2382 11.168 0.224 11.1752 0.224 11.184C0.224 11.1928 0.206 11.2 0.184 11.2C0.162 11.2 0.144 11.2056 0.144 11.2125C0.144 11.2194 0.1116 11.2346 0.072 11.2463L0 11.2675V11.8577V12.448H0.82132C1.27308 12.448 1.64632 12.4443 1.6508 12.4399C1.65528 12.4354 1.64196 12.3688 1.6212 12.2919C1.58548 12.1595 1.54268 12 1.46976 11.728C1.45208 11.662 1.42676 11.5684 1.41356 11.52C1.40032 11.4716 1.37564 11.3798 1.35876 11.316C1.34184 11.2522 1.31312 11.1442 1.29488 11.076C1.27668 11.0078 1.25616 10.9299 1.24928 10.9031C1.23716 10.8558 1.18776 10.768 1.1732 10.768C1.16932 10.768 1.17016 10.7745 1.17516 10.7826Z"
          fill="#8398d7"/>
    <path fill-rule="evenodd" clip-rule="evenodd"
          d="M15.4491 8.57998C15.4391 8.61366 15.4116 8.73886 15.392 8.83998C15.3818 8.89278 15.3674 8.96478 15.36 8.99998C15.3526 9.03518 15.3382 9.10718 15.328 9.15998C15.3178 9.21278 15.3034 9.28478 15.296 9.31998C15.2886 9.35518 15.2742 9.42718 15.264 9.47998C15.2538 9.53278 15.2392 9.60478 15.2316 9.63998C15.224 9.67518 15.2146 9.72198 15.2109 9.74398C15.2 9.80738 14.8808 11.4089 14.8649 11.48C14.857 11.5152 14.8423 11.5872 14.8322 11.64C14.822 11.6928 14.8067 11.7631 14.7981 11.7963C14.7736 11.8909 14.7545 11.888 15.4033 11.888H16.0047L15.9934 11.684C15.9872 11.5718 15.9754 11.4776 15.9671 11.4747C15.9588 11.4717 15.952 11.4353 15.952 11.3939C15.952 11.3523 15.943 11.3087 15.932 11.2968C15.9157 11.2793 15.9165 11.2778 15.936 11.2887C15.9555 11.2996 15.9564 11.2977 15.941 11.2785C15.9305 11.2656 15.9202 11.2174 15.9181 11.1715C15.916 11.1255 15.9084 11.088 15.9012 11.088C15.8939 11.088 15.888 11.052 15.888 11.008C15.888 10.964 15.8814 10.928 15.8734 10.928C15.8653 10.928 15.8546 10.883 15.8496 10.828C15.826 10.5683 15.8202 10.5285 15.8066 10.5369C15.7984 10.5419 15.792 10.5 15.792 10.4409C15.792 10.3816 15.785 10.336 15.776 10.336C15.7671 10.336 15.7599 10.2918 15.7598 10.236C15.7596 10.1711 15.7545 10.1439 15.7452 10.1585C15.7356 10.1737 15.728 10.1475 15.7219 10.0785C15.7027 9.8621 15.6926 9.79198 15.6806 9.79198C15.6737 9.79198 15.6633 9.73258 15.6575 9.65998C15.6439 9.49174 15.639 9.45326 15.6155 9.33598C15.5924 9.21994 15.5697 9.07614 15.5576 8.96798C15.5527 8.92398 15.5437 8.88078 15.5375 8.87198C15.5314 8.86318 15.5248 8.83078 15.5229 8.79998C15.5138 8.65246 15.468 8.51606 15.4491 8.57998ZM5.66836 10.256C5.66836 10.2956 5.67148 10.3118 5.67528 10.292C5.67912 10.2722 5.67912 10.2398 5.67528 10.22C5.67148 10.2002 5.66836 10.2164 5.66836 10.256Z"
          fill="#7386c1"/>
  </g>
  <defs>
    <clipPath id="clip0_3:9">
      <rect width="16" height="16" fill="white"/>
    </clipPath>
  </defs>
</svg>
